<svg width="1918" height="1080" viewBox="0 0 1918 1080" fill="none" xmlns="http://www.w3.org/2000/svg">
<g clip-path="url(#clip0_2454_394)">
<path fill-rule="evenodd" clip-rule="evenodd" d="M1171.39 785.008C1049.09 717.302 1092.34 533.063 1029.27 408.7C973.55 298.817 820.098 236.086 830.857 113.464C842.176 -15.5388 964.454 -106.293 1079.72 -166.307C1190.02 -223.731 1315.18 -227.122 1437.1 -202.179C1568.66 -175.265 1712.02 -138.078 1780.35 -22.9727C1849.06 92.7829 1806.3 234.486 1773.78 364.986C1740.36 499.113 1708.48 642.474 1594.77 721.754C1473.26 806.479 1301.05 856.783 1171.39 785.008Z" stroke="white" stroke-opacity="0.24"/>
<path fill-rule="evenodd" clip-rule="evenodd" d="M1040.93 1340.92C781.457 1197.28 873.204 806.402 739.408 542.556C621.191 309.432 295.633 176.343 318.458 -83.8082C342.472 -357.497 601.894 -550.038 846.443 -677.362C1080.44 -799.193 1345.99 -806.386 1604.65 -753.468C1883.76 -696.368 2187.91 -617.474 2332.88 -373.269C2478.66 -127.685 2387.93 172.949 2318.94 449.814C2248.04 734.374 2180.39 1038.53 1939.17 1206.72C1681.37 1386.47 1316.01 1493.2 1040.93 1340.92Z" stroke="white" stroke-opacity="0.24"/>
<path fill-rule="evenodd" clip-rule="evenodd" d="M879.074 1641.47C567.716 1469.11 677.807 1000.08 517.26 683.482C375.408 403.747 -15.2436 244.048 12.1457 -68.1178C40.9602 -396.529 352.252 -627.566 645.696 -780.348C926.478 -926.537 1245.12 -935.168 1555.51 -871.671C1890.42 -803.154 2255.38 -708.485 2429.33 -415.454C2604.26 -120.767 2495.39 239.976 2412.61 572.198C2327.53 913.653 2246.36 1278.62 1956.9 1480.44C1647.56 1696.13 1209.15 1824.2 879.074 1641.47Z" stroke="white" stroke-opacity="0.24"/>
</g>
<defs>
<clipPath id="clip0_2454_394">
<rect width="1920" height="1080" fill="white" transform="translate(-2)"/>
</clipPath>
</defs>
</svg>
