<svg width="209" height="50" viewBox="0 0 209 50" fill="none" xmlns="http://www.w3.org/2000/svg">
<path d="M101.5 13.7C101.5 14.6867 101.7 15.5467 102.1 16.28C102.513 17 103.1 17.56 103.86 17.96C104.62 18.36 105.513 18.56 106.54 18.56C107.58 18.56 108.473 18.36 109.22 17.96C109.967 17.56 110.547 17 110.96 16.28C111.373 15.5467 111.58 14.6867 111.58 13.7V5H113.46V13.74C113.46 15.0333 113.167 16.1733 112.58 17.16C111.993 18.1333 111.18 18.8933 110.14 19.44C109.113 19.9867 107.913 20.26 106.54 20.26C105.167 20.26 103.96 19.9867 102.92 19.44C101.88 18.8933 101.067 18.1333 100.48 17.16C99.9067 16.1733 99.62 15.0333 99.62 13.74V5H101.5V13.7ZM124.391 12.68V11.66L131.211 20H128.871L123.191 12.92H123.991L118.291 20H115.991L122.811 11.7V12.62L116.531 5H118.851L124.071 11.42H123.211L128.411 5H130.671L124.391 12.68ZM138.266 4.46H139.846L134.246 20.54H132.666L138.266 4.46ZM144.754 13.7C144.754 14.6867 144.954 15.5467 145.354 16.28C145.767 17 146.354 17.56 147.114 17.96C147.874 18.36 148.767 18.56 149.794 18.56C150.834 18.56 151.727 18.36 152.474 17.96C153.221 17.56 153.801 17 154.214 16.28C154.627 15.5467 154.834 14.6867 154.834 13.7V5H156.714V13.74C156.714 15.0333 156.421 16.1733 155.834 17.16C155.247 18.1333 154.434 18.8933 153.394 19.44C152.367 19.9867 151.167 20.26 149.794 20.26C148.421 20.26 147.214 19.9867 146.174 19.44C145.134 18.8933 144.321 18.1333 143.734 17.16C143.161 16.1733 142.874 15.0333 142.874 13.74V5H144.754V13.7ZM161.125 5H163.005V20H161.125V5ZM119.1 30V45H117.3V30.44L118.04 30.46L110.46 45H108.46L100.88 30.48L101.62 30.46V45H99.82V30H102.66L110.06 44.36H108.88L116.26 30H119.1ZM135.31 36.7V38.3H125.09V36.7H135.31ZM126.27 37.5L125.13 44.54L124.13 43.36H135.85V45H123.21L124.45 37.5L123.21 30H135.75V31.64H124.13L125.13 30.46L126.27 37.5ZM153.609 44.06L152.689 44.12V30H154.509V45H152.089L140.669 30.88L141.589 30.82V45H139.769V30H142.209L153.609 44.06ZM164.049 30.9H165.929V45H164.049V30.9ZM157.609 30H172.369V31.66H157.609V30ZM182.025 45.26C180.358 45.26 178.885 44.9333 177.605 44.28C176.338 43.6267 175.352 42.72 174.645 41.56C173.938 40.3867 173.585 39.0333 173.585 37.5C173.585 35.9533 173.938 34.6 174.645 33.44C175.352 32.28 176.338 31.3733 177.605 30.72C178.885 30.0667 180.358 29.74 182.025 29.74C183.692 29.74 185.158 30.0667 186.425 30.72C187.692 31.3733 188.678 32.28 189.385 33.44C190.092 34.6 190.445 35.9533 190.445 37.5C190.445 39.0333 190.092 40.3867 189.385 41.56C188.678 42.72 187.692 43.6267 186.425 44.28C185.158 44.9333 183.692 45.26 182.025 45.26ZM182.025 43.56C183.345 43.56 184.492 43.3133 185.465 42.82C186.438 42.3133 187.192 41.6067 187.725 40.7C188.258 39.7933 188.525 38.7267 188.525 37.5C188.525 36.26 188.258 35.1867 187.725 34.28C187.192 33.3733 186.438 32.6733 185.465 32.18C184.492 31.6867 183.345 31.44 182.025 31.44C180.705 31.44 179.558 31.6867 178.585 32.18C177.612 32.6733 176.852 33.3733 176.305 34.28C175.772 35.1867 175.505 36.26 175.505 37.5C175.505 38.7267 175.772 39.7933 176.305 40.7C176.852 41.6067 177.612 42.3133 178.585 42.82C179.558 43.3133 180.705 43.56 182.025 43.56ZM195.534 37.08H201.974C202.961 37.08 203.747 36.8333 204.334 36.34C204.934 35.8467 205.234 35.1867 205.234 34.36C205.234 33.52 204.934 32.86 204.334 32.38C203.747 31.8867 202.961 31.64 201.974 31.64H195.274L196.114 30.64V45H194.234V30H202.034C203.047 30 203.934 30.1867 204.694 30.56C205.454 30.92 206.047 31.4267 206.474 32.08C206.914 32.7333 207.134 33.4933 207.134 34.36C207.134 35.2133 206.914 35.9667 206.474 36.62C206.047 37.2733 205.454 37.7867 204.694 38.16C203.934 38.52 203.047 38.7 202.034 38.7H195.534V37.08ZM198.854 37.98H201.174L207.434 45H205.094L198.854 37.98Z" fill="#F8F7FC"/>
<path d="M7 46L2 46C0.895428 46 -3.73642e-06 45.1046 -3.63985e-06 44L-3.17786e-07 6C-2.21222e-07 4.89543 0.89543 4 2 4L7 4L7 46Z" fill="#E1F030"/>
<path d="M38 4H43C44.1046 4 45 4.89543 45 6V44C45 45.1046 44.1046 46 43 46H38V4Z" fill="#E1F030"/>
<rect x="53" y="4" width="7" height="42" rx="2" fill="#F8F7FC"/>
<rect x="68" y="4" width="7" height="42" rx="2" fill="#F8F7FC"/>
<path d="M37.8779 45.9113L43.466 40.3232L28.0985 24.9557L43.466 9.58817L37.8779 4.00003L22.5104 19.3675L7.14283 4L1.55469 9.58813L16.9222 24.9557L1.55469 40.3232L7.14283 45.9114L22.5104 30.5438L37.8779 45.9113Z" fill="#E1F030"/>
</svg>
